<svg width="16" height="16" viewBox="0 0 16 16" fill="none" xmlns="http://www.w3.org/2000/svg">
<path fill-rule="evenodd" clip-rule="evenodd" d="M10.1667 3.99967C10.1667 4.27301 10.3933 4.49967 10.6667 4.49967C10.94 4.49967 11.1667 4.27301 11.1667 3.99967V3.22025C11.9816 3.2889 12.5119 3.44493 12.8667 3.79964C13.3101 4.24307 13.4431 4.96105 13.4829 6.16634H2.51707C2.55695 4.96105 2.68991 4.24307 3.13334 3.79964C3.48805 3.44493 4.01841 3.2889 4.83333 3.22025V3.99967C4.83333 4.27301 5.06 4.49967 5.33333 4.49967C5.60667 4.49967 5.83333 4.27301 5.83333 3.99967V3.17483C6.27218 3.16634 6.76927 3.16634 7.333 3.16634H8.66667C9.2304 3.16634 9.7278 3.16634 10.1667 3.17483V3.99967ZM13.5733 3.09301C14.3181 3.8378 14.4643 4.84096 14.493 6.58361C14.4976 6.61057 14.5 6.63821 14.5 6.66634C14.5 6.68961 14.4983 6.71254 14.4952 6.73507C14.5 7.12001 14.5 7.53994 14.5 7.99967V9.33301C14.5 11.9863 14.5 13.313 13.5733 14.2397C12.6467 15.1663 11.32 15.1663 8.66667 15.1663H7.33333C4.68667 15.1663 3.35334 15.1663 2.42667 14.2397C1.50001 13.313 1.5 11.9863 1.5 9.33301V7.99967C1.5 7.53994 1.5 7.12001 1.50482 6.73507C1.50165 6.71254 1.5 6.68961 1.5 6.66634C1.5 6.63821 1.5024 6.61057 1.50701 6.58361C1.53571 4.84096 1.68189 3.8378 2.42667 3.09301C3.00137 2.51832 3.72991 2.30003 4.83333 2.21712V1.33301C4.83333 1.05967 5.06 0.833008 5.33333 0.833008C5.60667 0.833008 5.83333 1.05967 5.83333 1.33301V2.17483C6.28089 2.16634 6.77807 2.16634 7.33333 2.16634H8.66667C9.2216 2.16634 9.71887 2.16634 10.1667 2.17489V1.33301C10.1667 1.05967 10.3933 0.833008 10.6667 0.833008C10.94 0.833008 11.1667 1.05967 11.1667 1.33301V2.21734C12.2688 2.30042 12.9991 2.51883 13.5733 3.09301ZM2.50123 7.16634H13.4988C13.5 7.42661 13.5 7.70401 13.5 7.99967V9.33301C13.5 11.7063 13.5 12.8997 12.8667 13.533C12.2333 14.1663 11.0401 14.1663 8.66707 14.1663H7.33333C4.96027 14.1663 3.76664 14.1663 3.13334 13.533C2.50001 12.8997 2.5 11.7063 2.5 9.33301V7.99967C2.5 7.70401 2.5 7.42661 2.50123 7.16634ZM7.3332 11.9997C7.3332 12.3663 7.6332 12.6663 7.99987 12.6663C8.36653 12.6663 8.66653 12.3663 8.66653 11.9997C8.66653 11.633 8.36653 11.333 7.99987 11.333C7.62653 11.333 7.3332 11.633 7.3332 11.9997ZM4.67318 11.9997C4.67318 12.3663 4.97318 12.6663 5.33985 12.6663C5.70651 12.6663 6.00651 12.3663 6.00651 11.9997C6.00651 11.633 5.70651 11.333 5.33985 11.333C4.96651 11.333 4.67318 11.633 4.67318 11.9997ZM9.99987 9.33301C9.99987 9.69967 10.2999 9.99967 10.6665 9.99967C11.0332 9.99967 11.3332 9.69967 11.3332 9.33301C11.3332 8.96634 11.0332 8.66634 10.6665 8.66634C10.2932 8.66634 9.99987 8.96634 9.99987 9.33301ZM7.3332 9.33301C7.3332 9.69967 7.6332 9.99967 7.99987 9.99967C8.36653 9.99967 8.66653 9.69967 8.66653 9.33301C8.66653 8.96634 8.36653 8.66634 7.99987 8.66634C7.62653 8.66634 7.3332 8.96634 7.3332 9.33301ZM4.67318 9.33301C4.67318 9.69967 4.97318 9.99967 5.33985 9.99967C5.70651 9.99967 6.00651 9.69967 6.00651 9.33301C6.00651 8.96634 5.70651 8.66634 5.33985 8.66634C4.96651 8.66634 4.67318 8.96634 4.67318 9.33301Z" fill="#7C7C7C"/>
</svg>
