<svg width="20" height="20" viewBox="0 0 20 20" fill="none" xmlns="http://www.w3.org/2000/svg">
<path d="M3.1481 9.95233C2.35808 8.57474 1.97662 7.44989 1.74661 6.30967C1.40643 4.62331 2.18492 2.976 3.47456 1.92489C4.01962 1.48064 4.64444 1.63243 4.96675 2.21066L5.6944 3.51609C6.27116 4.5508 6.55953 5.06815 6.50233 5.61665C6.44514 6.16515 6.05622 6.61188 5.27839 7.50534L3.1481 9.95233ZM3.1481 9.95233C4.74717 12.7406 7.25661 15.2514 10.0481 16.8523M10.0481 16.8523C11.4257 17.6423 12.5505 18.0238 13.6907 18.2538C15.3771 18.594 17.0244 17.8155 18.0755 16.5258C18.5197 15.9808 18.368 15.356 17.7897 15.0337L16.4843 14.306C15.4496 13.7292 14.9322 13.4409 14.3837 13.4981C13.8352 13.5552 13.3885 13.9442 12.4951 14.722L10.0481 16.8523Z" stroke="#525252" stroke-width="1.25" stroke-linejoin="round"/>
</svg>
