<svg width="25" height="25" viewBox="0 0 25 25" fill="none" xmlns="http://www.w3.org/2000/svg">
<path d="M2.25 2.5C2.25 2.086 2.586 1.75 3 1.75H3.938C5.2 1.75 6.3 2.609 6.606 3.833L6.61 3.847L7.114 6.25H19.948C20.452 6.25 20.915 6.25 21.286 6.309C21.701 6.375 22.133 6.533 22.439 6.954C22.733 7.359 22.771 7.818 22.742 8.237C22.715 8.632 22.617 9.118 22.506 9.67L22.496 9.717C22.091 11.731 21.692 13.631 20.753 15C20.267 15.71 19.634 16.285 18.793 16.676C17.96 17.062 16.961 17.25 15.763 17.25H8.963C8.143 17.253 7.421 17.88 7.276 18.75H18C19.243 18.75 20.25 19.757 20.25 21C20.25 22.243 19.243 23.25 18 23.25C16.757 23.25 15.75 22.243 15.75 21C15.75 20.737 15.795 20.485 15.878 20.25H13.122C13.205 20.485 13.25 20.737 13.25 21C13.25 22.243 12.243 23.25 11 23.25C9.757 23.25 8.75 22.243 8.75 21C8.75 20.737 8.795 20.485 8.878 20.25H6.911C6.241 20.25 5.75 19.693 5.75 19.071C5.75 17.743 6.515 16.571 7.638 16.045L5.79 7.242C5.771 7.186 5.758 7.127 5.753 7.065L5.148 4.185C5.005 3.635 4.508 3.25 3.938 3.25H3C2.586 3.25 2.25 2.914 2.25 2.5ZM9.38 15.75H15.763C16.809 15.75 17.579 15.585 18.161 15.315C18.736 15.048 19.167 14.662 19.516 14.153C20.247 13.085 20.604 11.519 21.026 9.421C21.149 8.807 21.226 8.419 21.246 8.134C21.255 7.999 21.248 7.922 21.24 7.879C21.234 7.849 21.228 7.84 21.226 7.837L21.223 7.835C21.207 7.827 21.159 7.807 21.051 7.79C20.812 7.752 20.47 7.75 19.894 7.75H7.429L9.109 15.75H9.38ZM10.25 21C10.25 21.414 10.586 21.75 11 21.75C11.414 21.75 11.75 21.414 11.75 21C11.75 20.586 11.414 20.25 11 20.25C10.586 20.25 10.25 20.586 10.25 21ZM18 20.25C17.586 20.25 17.25 20.586 17.25 21C17.25 21.414 17.586 21.75 18 21.75C18.414 21.75 18.75 21.414 18.75 21C18.75 20.586 18.414 20.25 18 20.25Z" fill="#7C7C7C"/>
</svg>
