<svg width="20" height="21" viewBox="0 0 20 21" fill="none" xmlns="http://www.w3.org/2000/svg">
<path d="M1.6665 5.5L7.42735 8.76414C9.55117 9.9675 10.4485 9.9675 12.5723 8.76414L18.3332 5.5" stroke="#6F2F2D" stroke-width="1.5" stroke-linejoin="round"/>
<path d="M1.67965 11.73C1.73412 14.2847 1.76136 15.5619 2.70397 16.5082C3.64657 17.4543 4.95845 17.4872 7.5822 17.5532C9.19925 17.5938 10.8004 17.5938 12.4175 17.5532C15.0413 17.4872 16.3531 17.4543 17.2958 16.5082C18.2383 15.5619 18.2656 14.2847 18.32 11.73C18.3376 10.9086 18.3376 10.0921 18.32 9.27066C18.2656 6.71604 18.2383 5.43873 17.2958 4.49254C16.3531 3.54635 15.0413 3.51339 12.4175 3.44747C10.8004 3.40683 9.19925 3.40683 7.58219 3.44746C4.95845 3.51338 3.64657 3.54633 2.70396 4.49253C1.76135 5.43873 1.73412 6.71603 1.67964 9.27066C1.66212 10.0921 1.66213 10.9086 1.67965 11.73Z" stroke="#6F2F2D" stroke-width="1.5" stroke-linejoin="round"/>
</svg>
