<svg width="21" height="23" viewBox="0 0 21 23" fill="none" xmlns="http://www.w3.org/2000/svg">
<path d="M10.5001 0.75C11.3741 0.75 12.1481 1.049 12.9741 1.549C13.7741 2.032 14.6881 2.746 15.8351 3.642L16.8731 4.452L17.0181 4.565C18.3941 5.638 19.2841 6.332 19.7671 7.325C20.2511 8.317 20.2511 9.447 20.2501 11.195V13.528C20.2501 15.372 20.2501 16.833 20.0971 17.976C19.9401 19.152 19.6081 20.103 18.8601 20.854C18.1111 21.605 17.1621 21.938 15.9901 22.096C14.8501 22.25 13.3941 22.25 11.5571 22.25H9.44308C7.60608 22.25 6.15008 22.25 5.01109 22.096C3.83809 21.938 2.88909 21.605 2.14009 20.854C1.39209 20.103 1.06109 19.152 0.903085 17.976C0.750085 16.833 0.750085 15.372 0.750085 13.528V11.38V11.196C0.749085 9.447 0.749085 8.317 1.23309 7.325C1.71609 6.332 2.60608 5.638 3.98208 4.565L4.12708 4.452L5.16508 3.642C6.31308 2.746 7.22709 2.032 8.02608 1.549C8.85209 1.049 9.62609 0.75 10.5001 0.75ZM6.05009 4.854L5.05009 5.634C3.47609 6.863 2.89408 7.34 2.58108 7.982C2.26809 8.624 2.25009 9.379 2.25009 11.38V13.472C2.25009 15.385 2.25209 16.745 2.39009 17.777C2.52509 18.787 2.77909 19.37 3.20309 19.795C3.62609 20.22 4.20608 20.474 5.21108 20.61C6.23908 20.748 7.59308 20.75 9.50008 20.75H11.5001C13.4071 20.75 14.7611 20.748 15.7891 20.61C16.7951 20.474 17.3741 20.22 17.7971 19.795C18.2211 19.37 18.4751 18.787 18.6101 17.777C18.7491 16.745 18.7501 15.385 18.7501 13.472V11.38C18.7501 9.379 18.7321 8.624 18.4191 7.982C18.1061 7.34 17.5241 6.863 15.9501 5.634L14.9501 4.854C13.7561 3.922 12.9121 3.264 12.1981 2.832C11.5011 2.411 10.9991 2.25 10.5001 2.25C10.0011 2.25 9.50008 2.411 8.80208 2.832C8.08809 3.264 7.24409 3.922 6.05009 4.854ZM13.5001 15.25H15.5001C15.9141 15.25 16.2501 15.586 16.2501 16V18C16.2501 18.414 15.9141 18.75 15.5001 18.75H13.5001C13.0861 18.75 12.7501 18.414 12.7501 18V16C12.7501 15.586 13.0861 15.25 13.5001 15.25Z" fill="#7C7C7C"/>
</svg>
