<svg width="22" height="20" viewBox="0 0 22 20" fill="none" xmlns="http://www.w3.org/2000/svg">
<path d="M11 19.2478C10.29 19.2478 9.57 19.0178 8.95996 18.5678C6.33996 16.6078 0.25 11.5278 0.25 6.69781C0.25 3.36782 2.78 0.757812 6 0.757812C7.79 0.757812 9.31 1.42777 11 2.96777C12.69 1.42777 14.21 0.757812 16 0.757812C19.22 0.757812 21.75 3.36782 21.75 6.69781C21.75 11.5378 15.66 16.6178 13.04 18.5678C12.43 19.0278 11.72 19.2478 11 19.2478ZM9.86 17.3678C10.54 17.8778 11.46 17.8778 12.14 17.3678C14.04 15.9478 20.25 10.9678 20.25 6.69781C20.25 4.16781 18.42 2.25781 16 2.25781C14.86 2.25781 13.53 2.53778 11.53 4.53778C11.24 4.82778 10.76 4.82778 10.47 4.53778C8.46997 2.53778 7.14 2.25781 6 2.25781C3.58 2.25781 1.75 4.16781 1.75 6.69781C1.75 10.9678 7.95999 15.9478 9.86 17.3678Z" fill="#575961"/>
</svg>
