<svg width="24" height="24" viewBox="0 0 24 24" fill="none" xmlns="http://www.w3.org/2000/svg">
<path d="M12.75 1.25C13.233 1.25 13.776 1.333 14.221 1.624C14.715 1.948 15 2.471 15 3.125C15 3.589 14.859 4.069 14.629 4.484C17.781 5.287 20.162 8.061 20.341 11.452C20.35 11.624 20.356 11.789 20.363 11.948C20.385 12.49 20.404 12.962 20.503 13.413C20.62 13.953 20.837 14.377 21.278 14.708C22.047 15.285 22.5 16.191 22.5 17.153C22.5 18.534 21.413 19.75 19.95 19.75H16.425C16.077 21.462 14.564 22.75 12.75 22.75C10.936 22.75 9.422 21.462 9.075 19.75H5.55C4.087 19.75 3 18.534 3 17.153C3 16.26 3.39 15.415 4.062 14.837L4.222 14.708C4.663 14.377 4.88 13.953 4.997 13.413C5.076 13.052 5.104 12.678 5.123 12.265L5.137 11.948C5.144 11.789 5.15 11.624 5.159 11.452C5.338 8.061 7.719 5.287 10.871 4.484C10.641 4.069 10.5 3.589 10.5 3.125C10.5 2.471 10.785 1.948 11.279 1.624C11.724 1.333 12.267 1.25 12.75 1.25ZM12.75 5.75C9.505 5.75 6.828 8.29 6.657 11.53C6.651 11.658 6.645 11.793 6.64 11.934C6.618 12.494 6.592 13.139 6.463 13.732C6.293 14.518 5.928 15.304 5.122 15.908C4.73 16.202 4.5 16.663 4.5 17.153C4.5 17.768 4.976 18.25 5.55 18.25H19.95C20.524 18.25 21 17.768 21 17.153C21 16.663 20.77 16.202 20.378 15.908C19.572 15.304 19.207 14.518 19.037 13.732C18.934 13.258 18.897 12.75 18.875 12.279L18.86 11.934C18.855 11.793 18.849 11.658 18.843 11.53C18.672 8.29 15.995 5.75 12.75 5.75ZM14.872 19.75H10.628C10.937 20.624 11.77 21.25 12.75 21.25C13.73 21.25 14.563 20.624 14.872 19.75ZM12.75 2.75C12.405 2.75 12.198 2.815 12.1 2.879C12.06 2.906 12.042 2.929 12.032 2.949C12.02 2.97 12 3.021 12 3.125C12 3.357 12.103 3.672 12.291 3.926C12.485 4.187 12.663 4.25 12.75 4.25C12.837 4.25 13.015 4.187 13.209 3.926C13.397 3.672 13.5 3.357 13.5 3.125C13.5 3.021 13.48 2.97 13.468 2.949C13.458 2.929 13.44 2.906 13.4 2.879C13.302 2.815 13.095 2.75 12.75 2.75Z" fill="#6F2F2D"/>
</svg>
