<svg width="24" height="24" viewBox="0 0 24 24" fill="none" xmlns="http://www.w3.org/2000/svg">
<path fill-rule="evenodd" clip-rule="evenodd" d="M2.26002 17.6422C2.33002 18.0022 2.64002 18.2522 3.00002 18.2522H21C21.36 18.2522 21.67 17.9922 21.74 17.6422C21.81 17.2922 21.61 16.9322 21.28 16.8022C20.05 16.3022 19.25 15.1322 19.25 13.8022V8.99219C19.25 4.99219 16 1.74219 12 1.74219C8.00002 1.74219 4.75002 4.99219 4.75002 8.99219V13.8022C4.75002 15.1322 3.95002 16.3122 2.72002 16.8022C2.38002 16.9322 2.19002 17.2922 2.26002 17.6422ZM18.77 16.7522H5.23002C5.88002 15.9422 6.25002 14.9122 6.25002 13.8122V9.0022C6.25002 5.8322 8.83002 3.2522 12 3.2522C15.17 3.2522 17.75 5.8322 17.75 9.0022V13.8122C17.75 14.9122 18.12 15.9322 18.77 16.7522ZM8.97992 21.0453C9.78992 21.8253 10.8599 22.2553 11.9999 22.2553C13.1399 22.2553 14.2099 21.8253 15.0199 21.0453C15.3199 20.7553 15.3299 20.2853 15.0399 19.9853C14.7499 19.6853 14.2799 19.6753 13.9799 19.9653C12.9199 20.9853 11.0799 20.9853 10.0199 19.9653C9.71993 19.6753 9.24993 19.6853 8.95993 19.9853C8.66993 20.2853 8.67992 20.7553 8.97992 21.0453Z" fill="white"/>
</svg>
