<svg width="24" height="25" viewBox="0 0 24 25" fill="none" xmlns="http://www.w3.org/2000/svg">
<path d="M20.198 3.5H3.802C3.05147 3.5 2.6762 3.5 2.41637 3.67726C2.28768 3.76505 2.18133 3.88109 2.10567 4.01627C1.9529 4.28921 1.99024 4.65793 2.06493 5.39537C2.18958 6.62624 2.2519 7.24168 2.57823 7.68168C2.74084 7.90095 2.94701 8.08519 3.18414 8.22315C3.65999 8.5 4.28635 8.5 5.53908 8.5H18.4609C19.7136 8.5 20.34 8.5 20.8159 8.22315C21.053 8.08519 21.2592 7.90095 21.4218 7.68168C21.7481 7.24168 21.8104 6.62624 21.9351 5.39537C22.0098 4.65793 22.0471 4.28921 21.8943 4.01627C21.8187 3.88109 21.7123 3.76505 21.5836 3.67726C21.3238 3.5 20.9485 3.5 20.198 3.5Z" stroke="#7C7C7C" stroke-width="1.5" stroke-linecap="round" stroke-linejoin="round"/>
<path d="M3 8.5V13.5408C3 17.2928 3 19.1688 4.17157 20.3344C5.34315 21.5 7.22876 21.5 11 21.5H13C16.7712 21.5 18.6569 21.5 19.8284 20.3344C21 19.1688 21 17.2928 21 13.5408V8.5" stroke="#7C7C7C" stroke-width="1.5" stroke-linecap="round" stroke-linejoin="round"/>
<path d="M10 11.5H14" stroke="#7C7C7C" stroke-width="1.5" stroke-linecap="round"/>
</svg>
