<svg width="24" height="25" viewBox="0 0 24 25" fill="none" xmlns="http://www.w3.org/2000/svg">
<path d="M9.39566 5H8.354C5.40772 5 3.93458 5 3.01929 5.87868C2.104 6.75736 2.104 8.17157 2.104 11V15C2.104 17.8284 2.104 19.2426 3.01929 20.1213C3.93458 21 5.40772 21 8.354 21H12.5606C15.5069 21 16.98 21 17.8953 20.1213C18.4883 19.552 18.6971 18.7579 18.7706 17.5" stroke="#292929" stroke-width="1.5" stroke-linecap="round" stroke-linejoin="round"/>
<path d="M16.1667 7.5V4.35355C16.1667 4.15829 16.3316 4 16.535 4C16.6326 4 16.7263 4.03725 16.7954 4.10355L21.5275 8.64645C21.7634 8.87282 21.8958 9.17986 21.8958 9.5C21.8958 9.82014 21.7634 10.1272 21.5275 10.3535L16.7954 14.8964C16.7263 14.9628 16.6326 15 16.535 15C16.3316 15 16.1667 14.8417 16.1667 14.6464V11.5H13.1157C8.875 11.5 7.3125 15 7.3125 15V12.5C7.3125 9.73858 9.64435 7.5 12.5208 7.5H16.1667Z" stroke="#292929" stroke-width="1.5" stroke-linecap="round" stroke-linejoin="round"/>
</svg>
