<svg width="50" height="48" viewBox="0 0 50 48" fill="none" xmlns="http://www.w3.org/2000/svg">
<path d="M31.161 4.37068V43.6669C31.161 44.8987 30.1501 45.8969 28.9026 45.8969H9.08461C8.45779 45.8969 7.89114 45.6451 7.48186 45.2384C7.07667 44.8349 6.82617 44.2797 6.82617 43.6669V4.37068C6.82617 3.13885 7.8371 2.14062 9.08461 2.14062H28.9024C29.2712 2.14062 29.6193 2.22778 29.9269 2.3828C30.6596 2.75137 31.161 3.503 31.161 4.37068Z" fill="#133643"/>
<path d="M31.1606 4.37069V43.6669C31.1606 44.8987 30.1497 45.8969 28.9022 45.8969H9.0842C8.45738 45.8969 7.89072 45.6452 7.48145 45.2384L29.9265 2.38281C30.6592 2.75138 31.1606 3.50301 31.1606 4.37069Z" fill="#000B17"/>
<path d="M6.8261 14.4014H6.72441C6.32433 14.4014 6 14.0811 6 13.686V9.92527C6 9.53022 6.32433 9.20996 6.72441 9.20996H6.8261V14.4014Z" fill="#000B17"/>
<path d="M31.1611 13.0427H31.2444C31.5718 13.0427 31.8371 12.7806 31.8371 12.4574V9.40069C31.8371 9.07741 31.5717 8.81543 31.2444 8.81543H31.1611V13.0427Z" fill="#000B17"/>
<path d="M6.8261 20.2968H6.72441C6.32433 20.2968 6 19.9765 6 19.5815V15.8208C6 15.4257 6.32433 15.1055 6.72441 15.1055H6.8261V20.2968Z" fill="#000B17"/>
<path d="M30.0342 4.23551V43.8012C30.0342 44.3449 29.5884 44.7838 29.0392 44.7838H8.94822C8.5369 44.7838 8.18434 44.5379 8.03233 44.186C7.98123 44.0674 7.95312 43.9375 7.95312 43.8012V4.23551C7.95312 3.69314 8.39894 3.25293 8.94822 3.25293H29.0392C29.1784 3.25293 29.31 3.28068 29.43 3.33113C29.7852 3.48249 30.0342 3.83062 30.0342 4.23551Z" fill="white"/>
<path d="M17.4453 21.2082H10.1533C9.44728 21.2082 8.875 20.6431 8.875 19.946V12.7456C8.875 12.0485 9.44728 11.4834 10.1533 11.4834H17.4453C18.1513 11.4834 18.7236 12.0485 18.7236 12.7456V19.946C18.7236 20.6431 18.1513 21.2082 17.4453 21.2082Z" fill="#FBDED3"/>
<path d="M15.328 14.7895C15.328 14.7895 14.899 14.1773 14.5407 14.1906C14.1824 14.2039 11.3497 16.2737 10.399 16.4201C9.44825 16.5664 9.60754 17.2594 9.76824 17.6162C9.92906 17.973 17.3071 17.7419 17.3071 17.7419C17.3071 17.7419 17.5852 15.5853 17.368 14.9153C17.1507 14.2454 16.0611 14.9714 15.328 14.7895Z" fill="#5D4A43"/>
<path d="M13.7512 16.2468C13.7843 16.2578 13.8217 16.256 13.855 16.2388C13.9198 16.2052 13.9447 16.1262 13.9107 16.0624C13.8994 16.041 13.6283 15.5364 13.2467 15.3301C12.7393 15.0549 12.3265 15.3293 12.3091 15.3412C12.249 15.3822 12.2339 15.4635 12.2754 15.5229C12.3168 15.5824 12.3993 15.5972 12.4596 15.5562C12.4708 15.5488 12.7581 15.364 13.1196 15.5594C13.4306 15.7277 13.6739 16.1795 13.6763 16.184C13.6928 16.2148 13.72 16.2365 13.7512 16.2468Z" fill="white"/>
<path d="M14.1583 15.8927C14.1912 15.9037 14.2287 15.9019 14.2621 15.8847C14.3269 15.8511 14.3518 15.7721 14.318 15.7082C14.3066 15.6868 14.0355 15.1822 13.6541 14.9757C13.1462 14.7003 12.7337 14.9749 12.7163 14.9868C12.6562 15.0277 12.6411 15.1092 12.6826 15.1686C12.724 15.228 12.8065 15.243 12.8667 15.2018C12.8781 15.1945 13.1654 15.0095 13.5267 15.2049C13.8388 15.3739 14.081 15.825 14.0833 15.8297C14.0998 15.8606 14.1271 15.8824 14.1583 15.8927Z" fill="white"/>
<path d="M13.2061 16.5275C13.2392 16.5385 13.2765 16.5367 13.31 16.5194C13.3747 16.4859 13.3997 16.4069 13.3658 16.343C13.3544 16.3216 13.0834 15.8171 12.7019 15.6105C12.1942 15.335 11.7816 15.6096 11.7642 15.6216C11.704 15.6626 11.689 15.744 11.7305 15.8034C11.7719 15.8628 11.8545 15.8778 11.9147 15.8367C11.9259 15.8293 12.2135 15.6444 12.5747 15.8398C12.8869 16.0088 13.129 16.4599 13.1314 16.4644C13.1478 16.4953 13.1751 16.5172 13.2061 16.5275Z" fill="white"/>
<path d="M27.8613 21.2082H20.5693C19.8633 21.2082 19.291 20.6431 19.291 19.946V12.7456C19.291 12.0485 19.8633 11.4834 20.5693 11.4834H27.8613C28.5674 11.4834 29.1396 12.0485 29.1396 12.7456V19.946C29.1396 20.6431 28.5674 21.2082 27.8613 21.2082Z" fill="#FBDED3"/>
<path d="M27.7745 15.2958H26.441V19.6451H21.97L21.9839 15.2958H20.6572C20.922 14.4305 21.409 13.8171 21.7156 13.4953C21.8741 13.3289 22.0952 13.2354 22.3265 13.2354H23.1939C23.1939 13.7871 23.6471 14.2342 24.2057 14.2342C24.7643 14.2342 25.2172 13.7871 25.2172 13.2354H26.1052C26.3365 13.2354 26.5577 13.3289 26.7162 13.4953C27.0226 13.8171 27.5097 14.4305 27.7745 15.2958Z" fill="#913E35"/>
<path d="M17.4453 41.7844H10.1533C9.44728 41.7844 8.875 41.2193 8.875 40.5222V33.3218C8.875 32.6247 9.44728 32.0596 10.1533 32.0596H17.4453C18.1513 32.0596 18.7236 32.6247 18.7236 33.3218V40.5222C18.7236 41.2192 18.1513 41.7844 17.4453 41.7844Z" fill="#FBDED3"/>
<path d="M27.8613 41.7844H20.5693C19.8633 41.7844 19.291 41.2193 19.291 40.5222V33.3218C19.291 32.6247 19.8633 32.0596 20.5693 32.0596H27.8613C28.5674 32.0596 29.1396 32.6247 29.1396 33.3218V40.5222C29.1396 41.2192 28.5674 41.7844 27.8613 41.7844Z" fill="#FBDED3"/>
<path d="M28.5279 9.89988H9.48624C9.14862 9.89988 8.875 9.62958 8.875 9.29633V7.66996C8.875 7.33659 9.14862 7.06641 9.48624 7.06641H28.5279C28.8655 7.06641 29.1392 7.33671 29.1392 7.66996V9.29633C29.1392 9.62958 28.8655 9.89988 28.5279 9.89988Z" fill="#FBDED3"/>
<path d="M28.8973 23.9131H9.11681C8.9832 23.9131 8.875 23.8061 8.875 23.6743V22.9165C8.875 22.7846 8.98332 22.6777 9.11681 22.6777H28.8973C29.031 22.6777 29.1392 22.7847 29.1392 22.9165V23.6743C29.1392 23.8061 29.0308 23.9131 28.8973 23.9131Z" fill="#FBDED3"/>
<path d="M28.8973 26.5889H9.11681C8.9832 26.5889 8.875 26.4819 8.875 26.3501V25.5923C8.875 25.4604 8.98332 25.3535 9.11681 25.3535H28.8973C29.031 25.3535 29.1392 25.4605 29.1392 25.5923V26.3501C29.1392 26.482 29.0308 26.5889 28.8973 26.5889Z" fill="#FBDED3"/>
<path d="M28.8973 29.2656H9.11681C8.9832 29.2656 8.875 29.1587 8.875 29.0269V28.269C8.875 28.1371 8.98332 28.0303 9.11681 28.0303H28.8973C29.031 28.0303 29.1392 28.1372 29.1392 28.269V29.0269C29.1392 29.1587 29.0308 29.2656 28.8973 29.2656Z" fill="#FBDED3"/>
<path d="M24.8195 5.21814H13.1685C12.616 5.21814 12.1641 4.77188 12.1641 4.22635V3.94785C12.1641 3.40232 12.616 2.95605 13.1685 2.95605H24.8195C25.3719 2.95605 25.8239 3.40232 25.8239 3.94785V4.22635C25.8238 4.77176 25.3719 5.21814 24.8195 5.21814Z" fill="#133643"/>
<path d="M22.2727 4.21726H14.5799C14.4441 4.21726 14.333 4.10752 14.333 3.97344V3.90495C14.333 3.77087 14.4441 3.66113 14.5799 3.66113H22.2727C22.4085 3.66113 22.5197 3.77087 22.5197 3.90495V3.97344C22.5197 4.10752 22.4086 4.21726 22.2727 4.21726Z" fill="#000B17"/>
<path d="M24.5139 3.92067C24.5139 4.10495 24.3625 4.25442 24.1759 4.25442C23.9893 4.25442 23.8379 4.10495 23.8379 3.92067C23.8379 3.73638 23.9893 3.58691 24.1759 3.58691C24.3625 3.58691 24.5139 3.73638 24.5139 3.92067Z" fill="#335464"/>
<path opacity="0.3" d="M30.0341 4.23544V43.8012C30.0341 44.3448 29.5883 44.7837 29.0391 44.7837H8.94812C8.5368 44.7837 8.18424 44.5378 8.03223 44.1859L29.4299 3.33105C29.7851 3.48242 30.0341 3.83055 30.0341 4.23544Z" fill="white"/>
<path d="M30.2149 11.3554L31.9938 15.3598C32.1091 15.6195 32.416 15.7377 32.679 15.6238L36.7344 13.8672C36.9974 13.7533 37.1171 13.4504 37.0017 13.1906L35.2228 9.18627C35.1075 8.92656 34.8006 8.80837 34.5376 8.92227L30.4822 10.6788C30.2191 10.7928 30.0994 11.0957 30.2149 11.3554ZM32.9193 10.5831C32.7568 10.6966 32.5332 10.6074 32.4979 10.4115C32.4804 10.3145 32.5238 10.2114 32.6053 10.1545C32.7678 10.041 32.9913 10.1301 33.0267 10.326C33.0442 10.423 33.0008 10.5262 32.9193 10.5831Z" fill="#913E35"/>
<path d="M31.7641 12.3685C31.5687 11.9286 31.7444 11.5521 32.1254 11.387C32.5064 11.222 32.9057 11.3494 33.1012 11.7893C33.2983 12.2331 33.1212 12.6059 32.7402 12.7709C32.3592 12.936 31.9612 12.8123 31.7641 12.3685ZM33.6181 10.7826L34.2257 10.5195L33.6113 13.7478L33.0038 14.0109L33.6181 10.7826ZM32.5908 12.0104C32.4852 11.7728 32.3747 11.736 32.2956 11.7702C32.2166 11.8043 32.1689 11.9098 32.2744 12.1475C32.3801 12.3853 32.4909 12.422 32.5699 12.3877C32.649 12.3534 32.6965 12.2482 32.5908 12.0104ZM34.1283 12.741C33.9329 12.3009 34.1083 11.9244 34.4893 11.7594C34.8704 11.5944 35.2697 11.7218 35.4651 12.162C35.6621 12.6057 35.4852 12.9786 35.1041 13.1436C34.7231 13.3086 34.3254 13.1846 34.1283 12.741ZM34.9548 12.383C34.8491 12.1453 34.7387 12.1084 34.6596 12.1428C34.5806 12.1769 34.5331 12.2821 34.6388 12.5199C34.7444 12.7577 34.8549 12.7945 34.934 12.7602C35.0129 12.726 35.0604 12.6209 34.9548 12.383Z" fill="white"/>
<path d="M33.0794 8.37487C32.8064 7.1047 32.1101 5.65845 31.2163 4.50608C31.198 4.48237 31.1791 4.45853 31.1601 4.43457V4.65959C32.088 5.87893 32.7147 7.2997 32.9512 8.40173C33.0488 8.85619 33.081 9.25289 33.0506 9.56595C33.0271 9.80599 32.9668 9.99695 32.8711 10.1271C32.8342 10.1772 32.7923 10.2183 32.7451 10.2499C32.6747 10.2966 32.592 10.3225 32.498 10.3277C32.4912 10.3703 32.4948 10.415 32.5108 10.4582C32.6254 10.4508 32.728 10.4169 32.8183 10.3569C32.8772 10.318 32.9289 10.2675 32.974 10.2068C33.0952 10.0444 33.1666 9.80662 33.1867 9.50717C33.2081 9.19285 33.1727 8.81041 33.0794 8.37487ZM31.1599 9.55145C29.798 7.88723 27.8806 2.99058 27.5538 2.14057C27.5515 2.13413 27.5491 2.12821 27.5468 2.12215C27.5756 2.12808 27.6042 2.13401 27.6327 2.14057H28.1165C27.9044 2.07006 27.684 2.01342 27.4559 1.97369C27.4326 1.96953 27.409 1.97811 27.3942 1.99589C27.379 2.01368 27.3748 2.03802 27.3832 2.05972C27.3882 2.07309 27.3986 2.10058 27.4138 2.14057C27.7009 2.89321 29.7317 8.13963 31.1602 9.75124C31.2934 9.90159 31.4213 10.0203 31.5423 10.1006C31.5797 10.1257 31.6166 10.1492 31.6529 10.1714L31.7999 10.1078C31.7403 10.074 31.6788 10.0357 31.6155 9.99367C31.4734 9.89932 31.3206 9.74784 31.1599 9.55145Z" fill="#000B17"/>
<path d="M37.1864 43.795L37.053 44.9747C37.053 44.9747 36.6626 45.1959 36.0469 45.0748L36.1765 43.6953L37.1864 43.795Z" fill="#FFAA95"/>
<path d="M36.3382 44.9408C36.3382 44.9408 36.1421 44.661 35.9785 44.6671C35.8149 44.6731 34.5205 45.6189 34.086 45.6857C33.6516 45.7526 33.7244 46.0692 33.7978 46.2323C33.8713 46.3954 37.2426 46.2897 37.2426 46.2897C37.2426 46.2897 37.3697 45.3042 37.2705 44.9981C37.1709 44.6922 36.6731 45.0238 36.3382 44.9408Z" fill="#464646"/>
<path d="M35.6176 45.6075C35.6327 45.6125 35.6498 45.6117 35.665 45.6038C35.6946 45.5884 35.706 45.5524 35.6906 45.5232C35.6853 45.5134 35.5615 45.283 35.3872 45.1886C35.1553 45.0628 34.9667 45.1882 34.9587 45.1936C34.9313 45.2123 34.9244 45.2495 34.9433 45.2768C34.9622 45.3039 34.9999 45.3107 35.0275 45.2919C35.0326 45.2885 35.1639 45.204 35.3291 45.2933C35.4711 45.3701 35.5824 45.5766 35.5834 45.5787C35.5909 45.5929 35.6034 45.6028 35.6176 45.6075Z" fill="white"/>
<path d="M35.8041 45.4454C35.8192 45.4505 35.8363 45.4496 35.8515 45.4418C35.8811 45.4264 35.8925 45.3903 35.877 45.3612C35.8718 45.3513 35.748 45.1209 35.5737 45.0265C35.3416 44.9007 35.1532 45.0262 35.1452 45.0316C35.1178 45.0503 35.1109 45.0875 35.1299 45.1147C35.1488 45.1418 35.1865 45.1488 35.2141 45.1299C35.2192 45.1264 35.3505 45.0419 35.5157 45.1312C35.6582 45.2084 35.7689 45.4145 35.77 45.4167C35.7774 45.4308 35.7899 45.4406 35.8041 45.4454Z" fill="white"/>
<path d="M35.3687 45.7355C35.3838 45.7405 35.4009 45.7396 35.4161 45.7318C35.4457 45.7164 35.4571 45.6804 35.4415 45.6512C35.4363 45.6415 35.3125 45.4109 35.1381 45.3166C34.906 45.1907 34.7176 45.3162 34.7097 45.3216C34.6822 45.3403 34.6753 45.3775 34.6944 45.4048C34.7133 45.4319 34.7511 45.4387 34.7785 45.4199C34.7836 45.4165 34.9151 45.3321 35.0801 45.4213C35.2228 45.4985 35.3334 45.7046 35.3345 45.7067C35.342 45.7207 35.3544 45.7307 35.3687 45.7355Z" fill="white"/>
<path d="M35.1121 22.1279C35.0325 22.3987 34.9505 22.6751 34.8681 22.9473C34.7623 23.2983 34.6568 23.6423 34.5564 23.9593C34.415 24.4055 34.2843 24.7978 34.1793 25.0782C33.8252 26.0227 32.6475 28.1405 32.1465 28.98L31.3213 28.7117C31.7005 28.0046 32.6034 24.9828 33.0385 24.2896L33.3005 23.3619L33.5049 22.6381L33.6492 22.1279H35.1121Z" fill="#FFAA95"/>
<path d="M30.6017 30.2149C30.5245 30.2777 30.4108 30.2885 30.3206 30.2294C30.2266 30.1678 30.1898 30.0492 30.2326 29.9462L30.5556 29.1684C30.5556 29.1684 30.5559 29.1683 30.5561 29.1683C30.4815 28.9858 30.5896 28.7797 30.7852 28.7359L31.5443 28.5664C31.5443 28.5664 32.1063 28.6176 32.216 28.8279C32.2856 28.9613 32.1008 29.3184 31.9564 29.5616C32.0019 29.6607 32.0048 29.7789 31.9585 29.8846L31.7611 30.3343C31.7026 30.4677 31.536 30.5164 31.4133 30.436C31.3881 30.4194 31.3674 30.3986 31.3508 30.3754L31.3479 30.3821C31.2894 30.5156 31.1228 30.5642 31.0002 30.4838C30.9846 30.4736 30.9712 30.4613 30.9588 30.4483C30.8835 30.4941 30.7844 30.4971 30.7039 30.4444C30.6259 30.3933 30.5881 30.303 30.6017 30.2149Z" fill="#FFAA95"/>
<path d="M31.4553 28.8438C31.4553 28.8438 31.2251 29.0601 31.0879 29.0409C31.0879 29.0409 31.2224 29.1805 31.1819 29.3086C31.1819 29.3086 31.3084 29.2562 31.4126 29.3632C31.4126 29.3632 31.5738 29.3465 31.6284 29.4595C31.6284 29.4595 31.8205 29.4106 31.8983 29.514C31.8983 29.514 31.925 29.319 31.6536 29.2958C31.3823 29.2726 31.2781 29.1656 31.3501 29.0583C31.4223 28.951 31.4553 28.8438 31.4553 28.8438Z" fill="#FF8B6B"/>
<path d="M34.8674 22.9469C34.7617 23.2979 34.6561 23.6419 34.5557 23.9588C33.9588 23.8959 33.5457 23.6035 33.2998 23.3615L33.5042 22.6377L34.8674 22.9469Z" fill="#FF8B6B"/>
<path d="M35.1817 17.8818C35.1817 17.8818 33.6532 21.4739 32.9961 22.6376C32.9961 22.6376 33.9152 23.4103 34.811 23.4321C34.811 23.4321 35.3303 19.4875 35.1817 17.8818Z" fill="#BE4744"/>
<path d="M42.2756 42.2441L43.0497 43.1524C43.0497 43.1524 42.9433 43.5842 42.4301 43.9415L41.5068 42.8983L42.2756 42.2441Z" fill="#FFAA95"/>
<path d="M42.5326 43.641C42.5326 43.641 42.1921 43.5885 42.0838 43.71C41.9755 43.8313 41.778 45.4093 41.5278 45.7663C41.2775 46.1233 41.5601 46.2894 41.7305 46.3491C41.9008 46.4089 44.1458 43.9233 44.1458 43.9233C44.1458 43.9233 43.51 43.1535 43.2169 43.0136C42.9237 42.8737 42.8243 43.4585 42.5326 43.641Z" fill="#464646"/>
<path d="M42.5241 44.6154C42.5383 44.6081 42.5494 44.5953 42.5542 44.579C42.5632 44.5472 42.5447 44.5143 42.5125 44.5052C42.5018 44.5022 42.2472 44.432 42.0579 44.4918C41.8058 44.571 41.7679 44.7925 41.7664 44.802C41.7611 44.8345 41.7837 44.8651 41.8167 44.8702C41.8497 44.8754 41.8806 44.8531 41.8858 44.8205C41.8868 44.8145 41.9153 44.6624 42.0947 44.6056C42.249 44.5569 42.4771 44.6196 42.4794 44.6202C42.495 44.6244 42.511 44.6224 42.5241 44.6154Z" fill="white"/>
<path d="M42.5339 44.3713C42.5479 44.364 42.5592 44.3512 42.5639 44.3349C42.5731 44.3031 42.5545 44.2702 42.5223 44.2611C42.5115 44.2581 42.257 44.1879 42.0676 44.2476C41.8154 44.3269 41.7777 44.5483 41.7761 44.5578C41.7709 44.5903 41.7935 44.621 41.8265 44.626C41.8594 44.6312 41.8905 44.6089 41.8956 44.5762C41.8966 44.5701 41.9251 44.418 42.1044 44.3614C42.2594 44.3126 42.4869 44.3754 42.4892 44.376C42.5046 44.3803 42.5206 44.3783 42.5339 44.3713Z" fill="white"/>
<path d="M42.447 44.8821C42.461 44.8748 42.4723 44.8619 42.477 44.8456C42.4861 44.8138 42.4674 44.7809 42.4354 44.7718C42.4246 44.7688 42.17 44.6987 41.9807 44.7583C41.7284 44.8377 41.6908 45.059 41.6892 45.0685C41.684 45.101 41.7066 45.1317 41.7396 45.1367C41.7725 45.1419 41.8036 45.1196 41.8087 45.087C41.8097 45.081 41.8383 44.9289 42.0175 44.8722C42.1725 44.8234 42.4 44.8862 42.4023 44.8869C42.4179 44.891 42.4337 44.8889 42.447 44.8821Z" fill="white"/>
<path d="M37.9246 29.712L38.5215 36.0872C38.5215 36.0872 39.4148 37.0751 40.0865 38.2832C40.6503 39.2972 42.4037 42.2878 42.4037 42.2878L41.6131 42.8918L36.1558 37.6744L34.9424 29.6494L37.9246 29.712Z" fill="#000B17"/>
<path d="M41.3184 42.9752C41.4 43.1777 41.5525 43.3154 41.7308 43.4311L42.786 42.5513C42.6974 42.3665 42.5763 42.2069 42.4265 42.0693L41.3184 42.9752Z" fill="#133643"/>
<path d="M41.9439 29.9774C41.9439 29.9774 40.5425 33.3797 38.7211 36.0328C38.7211 36.0328 38.4491 38.6149 37.9839 39.9894C37.7801 40.5912 37.4062 43.3807 37.4062 43.3807H36.0039L36.3604 35.4525L37.8222 29.71L41.9439 29.9774Z" fill="#133643"/>
<path d="M35.8754 43.334C35.7878 43.5711 35.8118 43.8064 35.8754 44.042L37.4745 44.0861C37.5424 43.8591 37.5626 43.6289 37.5406 43.3959L35.8754 43.334Z" fill="#3A555B"/>
<path d="M41.991 28.1795C41.9914 28.2282 41.991 28.2761 41.991 28.3234C41.9899 29.1872 41.9857 29.8567 41.9813 30.1854C41.1363 30.4115 40.2914 30.5574 39.4462 30.625C39.4077 30.6279 39.3699 30.6307 39.3314 30.6336C39.3108 30.635 39.2903 30.6365 39.2698 30.6375C39.2244 30.6406 39.1787 30.6435 39.1337 30.6457C39.0834 30.6488 39.0333 30.6514 38.9826 30.6539C38.4075 30.6801 37.8326 30.6699 37.2571 30.6234C37.1409 30.6138 37.0254 30.6028 36.9091 30.5903C36.9016 30.5896 36.8943 30.5889 36.8868 30.5882C36.8573 30.585 36.8278 30.5814 36.7979 30.5778C36.7799 30.5757 36.7619 30.5735 36.7442 30.5714C36.0753 30.4926 35.4063 30.3635 34.7369 30.1856C34.7351 30.0363 34.7344 29.815 34.7344 29.536C34.7344 29.4841 34.7344 29.4308 34.7348 29.375V29.3746C34.7351 28.9756 34.7377 28.4788 34.7419 27.9174C34.7423 27.8695 34.7427 27.8212 34.7429 27.7721C34.7461 27.3982 34.7501 26.9979 34.7552 26.5803C34.756 26.532 34.7563 26.4836 34.757 26.435C34.7624 26.0067 34.7689 25.5619 34.7764 25.1103C34.7811 24.8346 34.7861 24.5563 34.7919 24.2778C34.7976 23.9957 34.8037 23.7132 34.8105 23.4325C34.8119 23.3713 34.8134 23.3102 34.8152 23.2491C34.8808 20.5943 34.9941 18.1544 35.1816 17.8822C35.3115 17.6939 35.6091 17.4725 35.9595 17.2494C36.0023 17.2224 36.0459 17.195 36.0902 17.1676C36.2395 17.0756 37.4577 16.667 37.6124 16.5771L38.8998 16.4883C38.9078 16.4929 40.1388 16.9029 40.1467 16.9072C40.1996 16.9371 40.2533 16.9672 40.3061 16.9974C40.762 17.2571 41.2119 17.5308 41.471 17.7663C41.5088 17.8003 41.5427 17.8338 41.5714 17.8664C41.5944 17.8924 41.615 17.9176 41.6314 17.9425C41.6469 17.9649 41.662 18.0025 41.6764 18.0541C41.8322 18.613 41.9139 20.8096 41.9546 23.1996C41.9574 23.3709 41.96 23.5432 41.9625 23.7159C41.9637 23.7916 41.9647 23.8676 41.9657 23.9437C41.9668 23.9959 41.9675 24.0485 41.9679 24.1007C41.9683 24.127 41.9687 24.1529 41.9689 24.1793C41.9707 24.3093 41.9721 24.439 41.9733 24.5681C41.9743 24.6637 41.9754 24.7589 41.9765 24.8541C41.9885 26.0579 41.992 27.227 41.991 28.1795Z" fill="#A13A37"/>
<path d="M44.2944 31.5921C44.3261 31.9314 43.9076 31.7474 44.0259 31.0598C44.1439 30.3722 43.8085 29.7496 43.6639 29.7696C43.5189 29.7898 43.7837 30.5203 43.6549 30.7837C43.5264 31.0469 43.3602 30.5353 43.1947 30.2252C43.023 29.9029 43.0331 29.1997 43.1111 28.6979C43.1892 28.1959 42.2681 25.1475 42.2633 24.2641L42.151 23.8896L41.7401 22.5184L41.0967 20.3711C41.0967 20.3711 41.4821 18.7458 42.132 18.8855C42.132 18.8855 42.476 20.0175 42.8438 21.2942C42.906 21.5109 42.969 21.7321 43.0313 21.9523C43.2933 22.878 43.5394 23.7918 43.6539 24.3341C43.9561 25.7657 43.9795 28.7416 43.9795 28.7416C43.9795 28.7416 44.5128 29.8349 44.5255 30.3214C44.5388 30.8402 44.2631 31.2528 44.2944 31.5921Z" fill="#FFAA95"/>
<path d="M43.0314 21.953L42.1512 23.8903L41.7402 22.5191L42.8439 21.2949C42.9062 21.5116 42.9692 21.7326 43.0314 21.953Z" fill="#FF8B6B"/>
<path d="M43.0748 21.3756C42.6886 22.0295 42.2961 22.6797 41.905 23.3309C41.7761 22.9048 41.6426 22.4959 41.5174 22.1199C41.517 22.1189 41.5166 22.1181 41.5164 22.1171C41.4663 21.9668 41.4174 21.8218 41.3706 21.6832C41.3699 21.6807 41.3692 21.6783 41.3681 21.6762C41.3518 21.6275 41.336 21.5795 41.3199 21.5326V21.5322C41.1332 20.9747 40.9884 20.5316 40.947 20.2733C40.8355 19.5779 41.1395 18.2155 41.5679 17.947C41.579 17.9715 41.6128 17.8958 41.6329 17.9421C41.7081 18.1138 42.042 18.5376 42.2073 18.9505C42.2285 19.0031 42.2501 19.0579 42.2725 19.1136C42.5116 19.7208 42.8042 20.5107 43.0748 21.3756Z" fill="#A13A37"/>
<path d="M38.3142 17.7595C37.7566 17.7595 37.3635 17.2573 37.3472 17.2358C37.3237 17.2053 37.328 17.1606 37.3569 17.1358C37.3857 17.1111 37.428 17.1156 37.4515 17.1461C37.4566 17.1527 37.8226 17.6174 38.3142 17.6174C38.8 17.6174 39.0962 17.0915 39.0991 17.0861C39.1179 17.0522 39.1592 17.0407 39.1911 17.0605C39.2232 17.0802 39.2341 17.1237 39.2155 17.1575C39.202 17.1822 38.8783 17.7595 38.3142 17.7595Z" fill="#BE4744"/>
<path d="M35.9565 22.5725C35.9462 22.5725 35.9358 22.57 35.9259 22.5649C35.8924 22.5469 35.8791 22.5038 35.896 22.4686L36.1392 21.9612C36.1561 21.9259 36.1969 21.9117 36.2304 21.9296C36.2639 21.9474 36.2773 21.9906 36.2603 22.026L36.0172 22.5333C36.0052 22.5582 35.9813 22.5725 35.9565 22.5725Z" fill="#BE4744"/>
<path d="M35.4502 22.1571C35.4414 22.1629 35.4313 22.1665 35.4203 22.1675C35.383 22.1711 35.3501 22.1419 35.3467 22.1025L35.2991 21.536C35.2958 21.4966 35.3234 21.4618 35.3607 21.4583C35.398 21.4548 35.4309 21.4839 35.4342 21.5234L35.4819 22.0899C35.4843 22.1177 35.4713 22.1432 35.4502 22.1571Z" fill="#BE4744"/>
<path d="M36.7563 21.2786C36.7238 21.2786 36.695 21.2538 36.6894 21.2186L36.6015 20.6576C36.5954 20.6184 36.6204 20.5816 36.6575 20.5752C36.6945 20.5688 36.7294 20.5951 36.7355 20.6342L36.8234 21.1953C36.8295 21.2344 36.8045 21.2712 36.7674 21.2776C36.7636 21.2784 36.7599 21.2786 36.7563 21.2786Z" fill="#BE4744"/>
<path d="M38.9408 21.4871C38.9291 21.4871 38.9172 21.4839 38.9063 21.4771C38.874 21.4569 38.8634 21.413 38.8826 21.379L39.1568 20.8897C39.1759 20.8557 39.2175 20.8443 39.2498 20.8645C39.2822 20.8847 39.2928 20.9286 39.2736 20.9626L38.9993 21.452C38.9867 21.4745 38.9641 21.4871 38.9408 21.4871Z" fill="#BE4744"/>
<path d="M36.2573 19.2938C36.2447 19.2938 36.2319 19.2902 36.2205 19.2823L35.7683 18.9736C35.7369 18.952 35.7278 18.9077 35.7481 18.8746C35.7686 18.8414 35.8105 18.8318 35.842 18.8532L36.2942 19.162C36.3257 19.1836 36.3347 19.2279 36.3144 19.2612C36.3014 19.2822 36.2797 19.2938 36.2573 19.2938Z" fill="#BE4744"/>
<path d="M38.2709 23.8528C38.2605 23.8528 38.2502 23.8503 38.2403 23.8451C38.2069 23.8272 38.1936 23.7842 38.2104 23.7489L38.4537 23.2414C38.4706 23.2061 38.5114 23.192 38.5449 23.2099C38.5783 23.2278 38.5917 23.271 38.5747 23.3063L38.3317 23.8136C38.3195 23.8384 38.2956 23.8528 38.2709 23.8528Z" fill="#BE4744"/>
<path d="M37.2027 19.6765C37.1801 19.6765 37.158 19.6646 37.1451 19.6428C37.1252 19.6093 37.1349 19.565 37.1666 19.5441L37.623 19.2424C37.6548 19.2214 37.6966 19.2315 37.7165 19.2651C37.7364 19.2986 37.7267 19.3429 37.6951 19.3638L37.2386 19.6655C37.2275 19.673 37.215 19.6765 37.2027 19.6765Z" fill="#BE4744"/>
<path d="M36.1178 17.5663C36.1188 17.5802 36.1161 17.5937 36.11 17.605C36.0995 17.626 36.0791 17.641 36.0548 17.6427C36.0174 17.6455 35.9852 17.6157 35.9825 17.5763L35.9609 17.2497C36.0037 17.2227 36.047 17.1953 36.0915 17.168L36.1178 17.5663Z" fill="#BE4744"/>
<path d="M35.5094 20.6794C35.4868 20.6794 35.4647 20.6676 35.4518 20.6458C35.4318 20.6122 35.4415 20.5679 35.4732 20.547L35.9296 20.2453C35.9614 20.2243 36.0032 20.2344 36.0231 20.268C36.0431 20.3015 36.0334 20.3458 36.0017 20.3667L35.5453 20.6685C35.5342 20.6759 35.5216 20.6794 35.5094 20.6794Z" fill="#BE4744"/>
<path d="M39.1489 18.2031C39.1361 18.2031 39.1231 18.1993 39.1116 18.1912C39.0803 18.1694 39.0716 18.125 39.0923 18.092L39.3525 17.6749C39.3731 17.6418 39.4152 17.6326 39.4465 17.6544C39.4778 17.6762 39.4865 17.7206 39.4658 17.7537L39.2056 18.1708C39.1926 18.1918 39.171 18.2031 39.1489 18.2031Z" fill="#BE4744"/>
<path d="M39.3821 25.409C39.3643 25.409 39.3465 25.4016 39.3332 25.3869L38.9603 24.9768C38.9344 24.9483 38.9353 24.9028 38.9622 24.8755C38.9892 24.848 39.0322 24.849 39.0581 24.8775L39.431 25.2877C39.4569 25.3162 39.4561 25.3616 39.4291 25.389C39.4159 25.4025 39.3991 25.409 39.3821 25.409Z" fill="#BE4744"/>
<path d="M38.012 25.324C37.9941 25.324 37.9763 25.3166 37.963 25.3019L37.5902 24.8918C37.5642 24.8632 37.5651 24.8178 37.5921 24.7905C37.6192 24.7631 37.662 24.764 37.688 24.7925L38.0609 25.2027C38.0868 25.2312 38.0859 25.2766 38.059 25.304C38.0458 25.3175 38.029 25.324 38.012 25.324Z" fill="#BE4744"/>
<path d="M37.0268 28.0969C37.0206 28.0792 37.0208 28.059 37.0291 28.0407L37.262 27.528C37.2782 27.4923 37.3187 27.4773 37.3524 27.4943C37.3863 27.5115 37.4005 27.5542 37.3842 27.5899L37.1515 28.1027C37.1353 28.1384 37.0948 28.1534 37.0609 28.1363C37.0446 28.128 37.0327 28.1135 37.0268 28.0969Z" fill="#BE4744"/>
<path d="M40.9594 29.7883C40.9532 29.7706 40.9534 29.7504 40.9617 29.7321L41.1946 29.2194C41.2108 29.1837 41.2513 29.1687 41.285 29.1857C41.3189 29.2029 41.3331 29.2456 41.3168 29.2813L41.084 29.7941C41.0678 29.8298 41.0273 29.8448 40.9935 29.8278C40.9772 29.8194 40.9653 29.8049 40.9594 29.7883Z" fill="#BE4744"/>
<path d="M39.2701 30.638C39.2246 30.6412 39.1792 30.6441 39.1341 30.6462L39.0868 30.3267C39.081 30.2876 39.1063 30.2511 39.1433 30.245C39.1804 30.2389 39.215 30.2656 39.2207 30.3047L39.2701 30.638Z" fill="#BE4744"/>
<path d="M39.8124 29.6727C39.7977 29.6619 39.7873 29.645 39.7843 29.625L39.701 29.0632C39.6952 29.0241 39.7206 28.9875 39.7576 28.9813C39.7947 28.9753 39.8293 29.0019 39.8352 29.041L39.9186 29.6028C39.9243 29.6419 39.899 29.6786 39.862 29.6847C39.8437 29.6877 39.8262 29.6829 39.8124 29.6727Z" fill="#BE4744"/>
<path d="M36.5376 24.9744C36.5261 24.9744 36.5143 24.9712 36.5036 24.9647C36.4712 24.9449 36.46 24.901 36.4789 24.8668L36.7487 24.3746C36.7675 24.3403 36.8089 24.3287 36.8415 24.3485C36.8739 24.3683 36.8849 24.4122 36.8661 24.4464L36.5963 24.9386C36.5838 24.9615 36.5611 24.9744 36.5376 24.9744Z" fill="#BE4744"/>
<path d="M37.3295 23.7445C37.3048 23.7445 37.2812 23.7304 37.269 23.7057L37.0222 23.2003C37.005 23.1651 37.0182 23.1218 37.0514 23.1038C37.0846 23.0855 37.1256 23.0994 37.1428 23.1346L37.3896 23.64C37.4069 23.6752 37.3937 23.7184 37.3605 23.7365C37.3505 23.7419 37.3399 23.7445 37.3295 23.7445Z" fill="#BE4744"/>
<path d="M35.1847 23.6701C35.1776 23.6789 35.1686 23.6857 35.1591 23.69C35.1362 23.7 35.1093 23.6964 35.0891 23.6786L34.8115 23.4324C34.8129 23.3714 34.8142 23.3102 34.8159 23.249L35.1766 23.5688C35.2051 23.5944 35.2088 23.6395 35.1847 23.6701Z" fill="#BE4744"/>
<path d="M37.3265 18.3831C37.3019 18.3831 37.2782 18.369 37.2661 18.3443L37.0193 17.8389C37.0021 17.8037 37.0152 17.7604 37.0484 17.7424C37.0816 17.7242 37.1227 17.738 37.1399 17.7733L37.3867 18.2786C37.4039 18.3138 37.3908 18.357 37.3576 18.3751C37.3477 18.3806 37.337 18.3831 37.3265 18.3831Z" fill="#BE4744"/>
<path d="M38.9088 20.2348C38.9045 20.2348 38.9002 20.2344 38.8959 20.2335C38.8591 20.226 38.8349 20.1885 38.8421 20.1495L38.9441 19.5913C38.9513 19.5523 38.9869 19.5271 39.0236 19.5345C39.0604 19.5419 39.0845 19.5797 39.0774 19.6184L38.9753 20.1767C38.969 20.211 38.9407 20.2348 38.9088 20.2348Z" fill="#BE4744"/>
<path d="M38.0279 20.7249C38.0235 20.7249 38.0193 20.7245 38.015 20.7236C37.9782 20.7161 37.9542 20.6786 37.9612 20.6398L38.0632 20.0815C38.0704 20.0425 38.106 20.0173 38.1427 20.0247C38.1795 20.0323 38.2036 20.0699 38.1965 20.1086L38.0944 20.6669C38.0882 20.7012 38.0597 20.7249 38.0279 20.7249Z" fill="#BE4744"/>
<path d="M38.6592 18.8822C38.6367 18.8822 38.6148 18.8705 38.6019 18.8489L38.3133 18.3688C38.2932 18.3354 38.3026 18.2911 38.3342 18.2699C38.3661 18.2487 38.4078 18.2587 38.4279 18.292L38.7164 18.7721C38.7365 18.8055 38.7272 18.8498 38.6955 18.871C38.6841 18.8787 38.6716 18.8822 38.6592 18.8822Z" fill="#BE4744"/>
<path d="M36.0115 23.8331C35.993 23.8122 35.9874 23.7806 35.9998 23.7533L36.2316 23.24C36.2477 23.2043 36.2882 23.1892 36.3221 23.2062C36.356 23.2232 36.3702 23.266 36.3541 23.3017L36.1223 23.8149C36.1062 23.8506 36.0657 23.8658 36.0318 23.8487C36.0239 23.8448 36.0172 23.8394 36.0115 23.8331Z" fill="#BE4744"/>
<path d="M37.7573 22.3439C37.7302 22.3439 37.7045 22.3266 37.6941 22.2982L37.4979 21.7687C37.4842 21.7319 37.5014 21.6903 37.5363 21.6759C37.5712 21.6614 37.6105 21.6797 37.6242 21.7165L37.8204 22.246C37.8341 22.2828 37.8168 22.3245 37.7819 22.3388C37.7738 22.3422 37.7655 22.3439 37.7573 22.3439Z" fill="#BE4744"/>
<path d="M39.9134 25.6145C39.9031 25.6145 39.8927 25.612 39.8829 25.6068C39.8494 25.5891 39.8361 25.5459 39.853 25.5106L40.0962 25.0032C40.1131 24.9678 40.154 24.9537 40.1874 24.9716C40.2209 24.9894 40.2343 25.0326 40.2173 25.0679L39.9741 25.5753C39.9621 25.6003 39.9382 25.6145 39.9134 25.6145Z" fill="#BE4744"/>
<path d="M36.3404 29.2618C36.3403 29.2727 36.3379 29.2837 36.3328 29.294C36.3155 29.3292 36.2745 29.3428 36.2413 29.3246L35.7632 29.063C35.73 29.0449 35.7169 29.0016 35.7342 28.9664C35.7514 28.9312 35.7924 28.9176 35.8256 28.9358L36.3038 29.1974C36.3274 29.2102 36.3407 29.2356 36.3404 29.2618Z" fill="#BE4744"/>
<path d="M35.0422 29.5869C35.0422 29.5979 35.0399 29.609 35.0348 29.6192C35.0177 29.6544 34.9765 29.6679 34.9433 29.6497L34.7354 29.5359C34.7354 29.4841 34.7354 29.4308 34.7357 29.375L35.0056 29.5225C35.029 29.5354 35.0426 29.5611 35.0422 29.5869Z" fill="#BE4744"/>
<path d="M37.0513 30.2193L36.8878 30.5882C36.8582 30.585 36.8285 30.5815 36.7986 30.5778C36.7808 30.5757 36.763 30.5735 36.7451 30.5714L36.9286 30.1585C36.9444 30.1226 36.9848 30.1071 37.0187 30.1241C37.0527 30.1408 37.0675 30.1834 37.0513 30.2193Z" fill="#BE4744"/>
<path d="M40.7954 24.3215C40.7628 24.3215 40.734 24.2966 40.7285 24.2616L40.6406 23.7005C40.6344 23.6615 40.6595 23.6246 40.6965 23.6182C40.7336 23.6117 40.7684 23.6381 40.7746 23.6772L40.8625 24.2382C40.8686 24.2773 40.8436 24.3142 40.8066 24.3206C40.8028 24.3211 40.799 24.3215 40.7954 24.3215Z" fill="#BE4744"/>
<path d="M40.852 20.1814C40.8402 20.1814 40.8283 20.1783 40.8175 20.1715C40.7852 20.1513 40.7746 20.1074 40.7937 20.0733L41.068 19.5841C41.087 19.55 41.1287 19.5386 41.161 19.5588C41.1933 19.579 41.2039 19.6229 41.1847 19.657L40.9105 20.1464C40.8978 20.1688 40.8752 20.1814 40.852 20.1814Z" fill="#BE4744"/>
<path d="M39.9702 22.1699C39.9576 22.1699 39.9448 22.1663 39.9334 22.1584L39.4812 21.8497C39.4498 21.8281 39.4407 21.7838 39.461 21.7505C39.4815 21.7174 39.5234 21.7078 39.5548 21.7292L40.007 22.038C40.0384 22.0596 40.0475 22.1038 40.0272 22.1371C40.0143 22.1584 39.9924 22.1699 39.9702 22.1699Z" fill="#BE4744"/>
<path d="M35.183 25.506C35.1727 25.506 35.1623 25.5035 35.1525 25.4983C35.119 25.4805 35.1056 25.4373 35.1226 25.4021L35.3658 24.8948C35.3828 24.8595 35.4236 24.8453 35.457 24.8632C35.4905 24.881 35.5038 24.9242 35.4869 24.9595L35.2437 25.4669C35.2317 25.4916 35.2078 25.506 35.183 25.506Z" fill="#BE4744"/>
<path d="M40.7398 22.9412C40.7172 22.9412 40.6951 22.9293 40.6822 22.9075C40.6623 22.8739 40.672 22.8297 40.7037 22.8087L41.1601 22.507C41.1919 22.4861 41.2337 22.4962 41.2536 22.5297C41.2735 22.5633 41.2638 22.6075 41.2322 22.6285L40.7757 22.9302C40.7646 22.9376 40.7521 22.9412 40.7398 22.9412Z" fill="#BE4744"/>
<path d="M39.6461 23.6584C39.6295 23.6746 39.6056 23.6818 39.5823 23.675C39.5461 23.6646 39.5248 23.6251 39.5346 23.587L39.6759 23.0382C39.6857 23.0001 39.723 22.9774 39.7592 22.9879C39.7953 22.9982 39.8167 23.0377 39.8068 23.0758L39.6656 23.6245C39.6621 23.6381 39.6552 23.6497 39.6461 23.6584Z" fill="#BE4744"/>
<path d="M41.5728 17.8668L41.4546 18.0558C41.4415 18.0764 41.42 18.0879 41.3978 18.0879C41.385 18.0879 41.3722 18.0843 41.3607 18.0761C41.3294 18.0544 41.3206 18.01 41.3412 17.977L41.4724 17.7666C41.5102 17.8008 41.5439 17.8341 41.5728 17.8668Z" fill="#BE4744"/>
<path d="M42.089 19.1143L41.9634 19.3154C41.9502 19.3364 41.9288 19.3477 41.9066 19.3477C41.8938 19.3477 41.881 19.3438 41.8693 19.336C41.838 19.3139 41.8295 19.2695 41.8501 19.2365L42.028 18.9512C42.0478 19.0038 42.068 19.0585 42.089 19.1143Z" fill="#BE4744"/>
<path d="M36.2191 27.2772C36.2014 27.2772 36.1835 27.2697 36.1702 27.2551L35.7972 26.8449C35.7713 26.8164 35.7722 26.771 35.7991 26.7436C35.8261 26.7161 35.8691 26.7172 35.8951 26.7457L36.2679 27.1558C36.2939 27.1844 36.293 27.2298 36.266 27.2571C36.253 27.2706 36.2361 27.2772 36.2191 27.2772Z" fill="#BE4744"/>
<path d="M38.7004 28.7118C38.6827 28.7118 38.6648 28.7043 38.6515 28.6897L38.2787 28.2795C38.2527 28.251 38.2536 28.2056 38.2806 28.1782C38.3075 28.1507 38.3506 28.1517 38.3765 28.1802L38.7494 28.5904C38.7753 28.6189 38.7744 28.6643 38.7475 28.6917C38.7343 28.7052 38.7173 28.7118 38.7004 28.7118Z" fill="#BE4744"/>
<path d="M39.3911 28.1419C39.3798 28.1272 39.3741 28.1079 39.3765 28.0879L39.4438 27.5237C39.4484 27.4845 39.4824 27.4566 39.5196 27.4615C39.5568 27.4664 39.5831 27.5022 39.5784 27.5416L39.5112 28.1058C39.5066 28.145 39.4726 28.1729 39.4354 28.168C39.4173 28.1655 39.4017 28.1557 39.3911 28.1419Z" fill="#BE4744"/>
<path d="M37.9768 29.7323C37.9591 29.7323 37.9412 29.7248 37.9279 29.7102L37.555 29.3C37.5291 29.2715 37.53 29.2261 37.5569 29.1987C37.5839 29.1712 37.6269 29.1722 37.6529 29.2007L38.0257 29.6109C38.0517 29.6394 38.0508 29.6848 38.0238 29.7122C38.0107 29.7256 37.9937 29.7323 37.9768 29.7323Z" fill="#BE4744"/>
<path d="M41.9916 28.1797C41.992 28.2284 41.9916 28.2763 41.9916 28.3236L41.5707 28.3609C41.5334 28.3645 41.5004 28.335 41.4973 28.2956C41.494 28.2561 41.5219 28.2217 41.5593 28.2182L41.9916 28.1797Z" fill="#BE4744"/>
<path d="M37.0618 26.4148C37.044 26.4148 37.0261 26.4074 37.0129 26.3928L36.64 25.9826C36.6141 25.9541 36.6149 25.9087 36.6419 25.8813C36.669 25.8539 36.7118 25.8548 36.7378 25.8833L37.1107 26.2935C37.1366 26.322 37.1357 26.3674 37.1088 26.3948C37.0956 26.4083 37.0788 26.4148 37.0618 26.4148Z" fill="#BE4744"/>
<path d="M38.8563 26.2366C38.8552 26.2554 38.847 26.2737 38.8323 26.2867L38.4201 26.6526C38.3913 26.6781 38.3485 26.6742 38.3245 26.6439C38.3004 26.6135 38.3041 26.5685 38.3328 26.543L38.745 26.177C38.7737 26.1515 38.8166 26.1554 38.8406 26.1857C38.8524 26.2006 38.8575 26.2189 38.8563 26.2366Z" fill="#BE4744"/>
<path d="M40.8198 28.2498C40.8083 28.2498 40.7965 28.2466 40.7858 28.2401C40.7533 28.2203 40.7423 28.1764 40.7611 28.1422L41.0309 27.65C41.0497 27.6157 41.0911 27.6041 41.1236 27.6239C41.1561 27.6437 41.1672 27.6876 41.1484 27.7218L40.8786 28.214C40.866 28.2371 40.8433 28.2498 40.8198 28.2498Z" fill="#BE4744"/>
<path d="M41.2866 26.7865C41.2621 26.7865 41.2383 26.7724 41.2262 26.7477L40.9793 26.2423C40.962 26.2071 40.9752 26.1638 41.0084 26.1458C41.0416 26.1275 41.0826 26.1414 41.0999 26.1765L41.3467 26.682C41.3639 26.7172 41.3507 26.7604 41.3174 26.7785C41.3077 26.784 41.2971 26.7865 41.2866 26.7865Z" fill="#BE4744"/>
<path d="M40.5503 21.0492C40.5258 21.0492 40.502 21.035 40.4899 21.0103L40.2429 20.5049C40.2257 20.4697 40.2389 20.4264 40.2722 20.4084C40.3054 20.3902 40.3464 20.404 40.3637 20.4392L40.6104 20.9445C40.6277 20.9797 40.6145 21.0229 40.5812 21.041C40.5715 21.0466 40.5608 21.0492 40.5503 21.0492Z" fill="#BE4744"/>
<path d="M40.8199 18.9282C40.8157 18.9282 40.8113 18.9278 40.807 18.9269C40.7702 18.9193 40.7461 18.8817 40.7532 18.8429L40.8553 18.2846C40.8623 18.2456 40.8981 18.2204 40.9347 18.2279C40.9715 18.2354 40.9955 18.273 40.9885 18.3117L40.8864 18.87C40.8802 18.9043 40.8517 18.9282 40.8199 18.9282Z" fill="#BE4744"/>
<path d="M42.0601 20.8549C42.0557 20.8549 42.0515 20.8545 42.0472 20.8537C42.0104 20.8461 41.9864 20.8086 41.9934 20.7698L42.0955 20.2114C42.1026 20.1725 42.1383 20.1472 42.1749 20.1546C42.2117 20.1622 42.2359 20.1998 42.2287 20.2385L42.1266 20.7969C42.1204 20.8311 42.0919 20.8549 42.0601 20.8549Z" fill="#BE4744"/>
<path d="M39.939 19.4183C39.9348 19.4183 39.9305 19.4179 39.9261 19.417C39.8893 19.4094 39.8652 19.3719 39.8723 19.3331L39.9744 18.7749C39.9814 18.7359 40.0172 18.7107 40.0539 18.7181C40.0907 18.7257 40.1148 18.7633 40.1076 18.802L40.0056 19.3602C39.9993 19.3944 39.971 19.4183 39.939 19.4183Z" fill="#BE4744"/>
<path d="M40.3429 17.4733C40.3297 17.4765 40.317 17.4755 40.3052 17.4712C40.284 17.4634 40.2669 17.4446 40.2615 17.42L40.1475 16.9072C40.2002 16.9371 40.2537 16.9673 40.3069 16.9975L40.3934 17.3869C40.4022 17.4258 40.3796 17.4641 40.3429 17.4733Z" fill="#BE4744"/>
<path d="M41.8955 21.7181C41.8731 21.7181 41.8511 21.7064 41.8382 21.6848L41.5496 21.2048C41.5296 21.1713 41.5389 21.1271 41.5706 21.1059C41.6023 21.0847 41.6442 21.0946 41.6642 21.1279L41.9528 21.608C41.9728 21.6414 41.9635 21.6857 41.9318 21.7069C41.9206 21.7145 41.9079 21.7181 41.8955 21.7181Z" fill="#BE4744"/>
<path d="M39.9685 26.8761C39.95 26.8551 39.9444 26.8236 39.9569 26.7962L40.1888 26.283C40.2049 26.2473 40.2453 26.2322 40.2792 26.2492C40.3132 26.2662 40.3274 26.309 40.3111 26.3447L40.0793 26.8579C40.0632 26.8936 40.0227 26.9087 39.9888 26.8917C39.9809 26.8878 39.9742 26.8824 39.9685 26.8761Z" fill="#BE4744"/>
<path d="M35.1954 27.8399L34.7422 27.9174C34.7426 27.8694 34.7428 27.821 34.7436 27.772L35.1736 27.6981C35.2106 27.6921 35.2456 27.7184 35.2512 27.7575C35.2572 27.7966 35.2323 27.8336 35.1954 27.8399Z" fill="#BE4744"/>
<path d="M35.0577 26.5291L34.7559 26.5807C34.7565 26.5323 34.7569 26.484 34.7575 26.4354L35.0357 26.3877C35.0728 26.3812 35.1074 26.408 35.1134 26.447C35.1195 26.4862 35.0946 26.5228 35.0577 26.5291Z" fill="#BE4744"/>
<path d="M41.7143 25.3869C41.6872 25.3869 41.6616 25.3696 41.6511 25.3412L41.4549 24.8117C41.4412 24.7748 41.4585 24.7332 41.4933 24.7188C41.5282 24.7043 41.5676 24.7226 41.5812 24.7595L41.7774 25.289C41.7911 25.3258 41.7738 25.3674 41.739 25.3818C41.7308 25.3852 41.7225 25.3869 41.7143 25.3869Z" fill="#BE4744"/>
<path d="M41.9631 23.7155C41.8358 23.1957 41.6756 22.6179 41.5169 22.12C41.5166 22.119 41.5162 22.1183 41.5158 22.1171C41.4669 21.9633 41.418 21.8172 41.37 21.6832C41.3693 21.6807 41.3686 21.6783 41.3675 21.6762C41.3528 21.6339 41.3376 21.593 41.3229 21.5532C41.3207 21.5461 41.3193 21.5393 41.3193 21.5326V21.5323C41.3193 21.5084 41.3344 21.4861 41.3586 21.4771C41.3898 21.4662 41.4245 21.4818 41.4356 21.5127C41.5982 21.9505 41.7904 22.5808 41.9552 23.1991C41.9582 23.3705 41.9606 23.5428 41.9631 23.7155Z" fill="#BE4744"/>
<path d="M36.5956 13.0437C36.5956 13.0437 35.8756 12.7956 35.9474 12.2426C36.0086 11.772 36.5373 12.0771 36.4908 11.7093C36.4443 11.3415 36.341 11.0072 36.7961 10.9153C37.1942 10.8349 37.2009 11.1201 37.7236 10.7063C38.3413 10.2175 38.8157 11.3493 39.3669 11.3834C40.1798 11.4334 40.2825 11.9141 40.3625 12.2986C40.4425 12.6831 40.0493 13.1345 40.0493 13.1345L36.5956 13.0437Z" fill="#133643"/>
<path d="M36.7159 13.8515C36.7159 13.8515 36.4138 13.4536 36.1891 13.7826C35.9644 14.1116 36.2821 15.083 36.8321 14.8459L36.7159 13.8515Z" fill="#FF8B6B"/>
<path d="M36.7122 14.5452C36.6919 14.5452 36.6732 14.5319 36.6675 14.5116C36.5823 14.2117 36.2675 14.0901 36.2643 14.0888C36.2404 14.0797 36.2283 14.0532 36.2374 14.0297C36.2465 14.0059 36.2733 13.9941 36.2973 14.0029C36.312 14.0085 36.6588 14.1413 36.757 14.4868C36.7639 14.5111 36.7495 14.5365 36.7248 14.5434C36.7206 14.5445 36.7164 14.5452 36.7122 14.5452Z" fill="#D85C48"/>
<path d="M36.3941 14.3943C36.3854 14.3943 36.3767 14.392 36.3689 14.387C36.3474 14.3732 36.3412 14.3449 36.355 14.3235C36.3573 14.32 36.413 14.2361 36.5295 14.1847C36.5528 14.1743 36.5805 14.1847 36.591 14.2079C36.6014 14.231 36.591 14.2581 36.5674 14.2684C36.4774 14.3083 36.4336 14.3726 36.4332 14.3732C36.4243 14.3869 36.4093 14.3943 36.3941 14.3943Z" fill="#D85C48"/>
<path d="M39.8301 13.8515C39.8301 13.8515 40.1322 13.4536 40.3569 13.7826C40.5816 14.1116 40.2639 15.083 39.7139 14.8459L39.8301 13.8515Z" fill="#FF8B6B"/>
<path d="M39.8345 14.5452C39.8548 14.5452 39.8735 14.5319 39.8792 14.5116C39.9644 14.2117 40.2792 14.0901 40.2824 14.0888C40.3064 14.0797 40.3184 14.0532 40.3093 14.0297C40.3003 14.0059 40.2734 13.9941 40.2495 14.0029C40.2349 14.0085 39.888 14.1413 39.7898 14.4868C39.7829 14.5111 39.7973 14.5365 39.822 14.5434C39.8261 14.5445 39.8303 14.5452 39.8345 14.5452Z" fill="#D85C48"/>
<path d="M40.1521 14.3943C40.1608 14.3943 40.1695 14.392 40.1772 14.387C40.1988 14.3732 40.2051 14.3449 40.1912 14.3235C40.1889 14.32 40.1332 14.2361 40.0167 14.1847C39.9933 14.1743 39.9657 14.1847 39.9552 14.2079C39.9448 14.231 39.9552 14.2581 39.9786 14.2684C40.0687 14.3083 40.1125 14.3726 40.1129 14.3732C40.1218 14.3869 40.1368 14.3943 40.1521 14.3943Z" fill="#D85C48"/>
<path d="M39.0169 15.6699V16.6361C39.0169 16.6361 38.7251 17.1282 38.3305 17.1617C37.9363 17.1956 37.5859 16.738 37.5859 16.738V15.7379L39.0169 15.6699Z" fill="#FFAA95"/>
<path d="M39.0169 15.6699V16.0987C38.7521 16.3888 38.2819 16.4613 37.5859 16.3597V15.7378L39.0169 15.6699Z" fill="#FF8B6B"/>
<path d="M40.0482 13.1891C40.0303 13.5646 39.9942 14.0342 39.9215 14.4094V14.4104C39.9215 14.4115 39.9211 14.4125 39.9207 14.414C39.9207 14.4144 39.9204 14.4144 39.9204 14.4148C39.9025 14.5064 39.8824 14.5926 39.8604 14.6701C39.8473 14.7155 39.8331 14.7632 39.817 14.8119C39.585 15.5303 39.0478 16.5702 37.6973 16.0944C37.1286 15.8942 36.8324 15.3142 36.6815 14.6852C36.6727 14.6478 36.6644 14.6105 36.657 14.5748C36.6519 14.551 36.6471 14.5279 36.6428 14.5052L36.6362 14.4717C36.635 14.4659 36.6344 14.462 36.634 14.4594C36.6336 14.458 36.6336 14.4573 36.6336 14.4573C36.5444 13.9736 36.531 13.4845 36.5375 13.135C36.5444 12.7787 36.7418 12.4526 37.0559 12.2769C37.9067 11.8005 38.8048 11.9782 39.3962 12.2026C39.8068 12.3582 40.0694 12.756 40.0482 13.1891Z" fill="#FFAA95"/>
<path d="M39.9214 14.4089L39.714 14.3945C39.714 14.3945 39.5957 14.6366 39.4211 14.9035C39.2465 14.5244 38.4041 14.7999 38.4041 14.7999C38.3509 14.8168 38.2961 14.8255 38.2409 14.8255C38.1872 14.8255 38.1338 14.8172 38.082 14.8014L38.078 14.8001C38.078 14.8001 37.2255 14.5361 37.0575 14.9335C36.9545 14.7781 36.8705 14.6032 36.8324 14.4174L36.6338 14.4571C36.6338 14.4571 36.6338 14.4579 36.6342 14.4592C36.6346 14.4618 36.6352 14.4657 36.6363 14.4715L36.643 14.505C36.6473 14.5277 36.6522 14.5508 36.6572 14.5747C36.6644 14.6103 36.6729 14.6476 36.6817 14.685C36.8326 15.314 37.1288 15.894 37.6975 16.0942C39.0479 16.57 39.5852 15.5301 39.8172 14.8117C39.8643 14.618 39.9119 14.4459 39.9205 14.4146C39.9205 14.4142 39.9209 14.4142 39.9209 14.4138C39.9213 14.4124 39.9217 14.4113 39.9217 14.4102C39.9221 14.4094 39.9221 14.4092 39.9221 14.4092H39.9214V14.4089ZM39.0302 15.3946V15.395C39.0298 15.395 39.0298 15.395 39.0298 15.395C38.9644 15.4567 38.8976 15.5087 38.8314 15.5436C38.4574 15.7434 38.4169 15.7135 38.269 15.7196C38.1189 15.7268 37.9117 15.6827 37.7013 15.5669C37.6355 15.5305 37.5377 15.4602 37.4306 15.3639C37.4306 15.3639 37.279 14.8514 38.2429 14.9798C39.2095 14.8158 39.0463 15.2945 39.0302 15.3946Z" fill="#133643"/>
<path d="M39.0461 13.8879C39.0461 13.991 38.9922 14.0747 38.9259 14.0747C38.8594 14.0747 38.8057 13.991 38.8057 13.8879C38.8057 13.7847 38.8594 13.7012 38.9259 13.7012C38.9923 13.701 39.0461 13.7847 39.0461 13.8879Z" fill="#133643"/>
<path d="M37.5861 13.8879C37.5861 13.991 37.5323 14.0747 37.4659 14.0747C37.3995 14.0747 37.3457 13.991 37.3457 13.8879C37.3457 13.7847 37.3995 13.7012 37.4659 13.7012C37.5323 13.701 37.5861 13.7847 37.5861 13.8879Z" fill="#133643"/>
<path d="M39.4243 13.2581C39.4243 13.2581 38.9275 13.0643 38.5449 13.2275L38.5831 13.4375C38.5831 13.4375 39.1445 13.3906 39.4275 13.5038C39.4529 13.423 39.4566 13.3412 39.4243 13.2581Z" fill="#133643"/>
<path d="M37.0625 13.2588C37.0625 13.2588 37.563 13.0636 37.9484 13.2279L37.9098 13.4396C37.9098 13.4396 37.3442 13.3924 37.0592 13.5064C37.0336 13.4249 37.0299 13.3426 37.0625 13.2588Z" fill="#133643"/>
<path d="M38.2803 14.7222C38.3588 14.7222 38.4366 14.6921 38.4486 14.6873C38.4723 14.6777 38.4837 14.6509 38.474 14.6275C38.4643 14.604 38.4372 14.5928 38.4135 14.6023C38.3714 14.619 38.2706 14.6455 38.227 14.6197C38.2185 14.6146 38.207 14.6048 38.2041 14.5769C38.1872 14.4166 38.2317 13.8794 38.2322 13.874C38.2344 13.8487 38.2153 13.8265 38.1897 13.8244C38.164 13.8222 38.1416 13.8412 38.1396 13.8664C38.1377 13.8888 38.094 14.4176 38.1116 14.5864C38.1182 14.6498 38.152 14.6823 38.1792 14.6984C38.2089 14.7159 38.2447 14.7222 38.2803 14.7222Z" fill="#FF8B6B"/>
<path d="M37.6963 15.0713C37.7315 15.2466 37.8488 15.5691 38.244 15.5691C38.6402 15.5691 38.7512 15.2744 38.7894 15.0713H37.6963Z" fill="white"/>
<path d="M40.0483 13.1889C40.0302 13.5644 39.9939 14.0339 39.9214 14.4094L39.7137 14.3949C39.7137 14.3949 39.764 14.0779 39.7872 13.8713C39.8105 13.6648 39.85 13.2787 39.6715 13.2306C39.4934 13.1829 39.5979 12.7424 39.3503 12.5515C39.1024 12.3601 38.5483 12.3075 38.183 12.5298C37.8176 12.7515 37.4059 12.513 37.2376 12.5515C37.0688 12.5896 36.8402 12.8191 36.902 13.0334C36.9643 13.2473 36.7783 13.3776 36.7332 13.5994C36.6882 13.8211 36.8322 14.4177 36.8322 14.4177L36.6337 14.4572C36.5444 13.9735 36.531 13.4846 36.5375 13.1353C36.5444 12.7788 36.7415 12.4528 37.0558 12.277C37.9069 11.8006 38.8049 11.9782 39.3962 12.2026C39.8065 12.3582 40.0692 12.7562 40.0483 13.1889Z" fill="#133643"/>
<path d="M21.0108 34.0674H12.2295V40.6535H21.0108V34.0674Z" fill="#FC5F2D"/>
<path d="M21.3014 33.7383H11.9385V34.8335H21.3014V33.7383Z" fill="#FF8652"/>
<path d="M21.0108 34.834H12.2295V35.4368H21.0108V34.834Z" fill="#ED3915"/>
<path d="M17.005 33.7383H16.2354V40.6593H17.005V33.7383Z" fill="white"/>
<path d="M17.0049 35.3965H16.2354V40.6593H17.0049V35.3965Z" fill="#F1F1F1"/>
<path d="M17.0049 34.834H16.2354V35.4367H17.0049V34.834Z" fill="#D8D8D8"/>
<path d="M27.6186 29.4211L19.624 25.833L16.864 31.829L24.8585 35.417L27.6186 29.4211Z" fill="#BE4744"/>
<path d="M28.0211 29.2407L19.4971 25.415L19.0381 26.4121L27.5621 30.2378L28.0211 29.2407Z" fill="#913E35"/>
<path d="M27.2973 30.1193L19.3027 26.5312L19.0501 27.08L27.0447 30.6681L27.2973 30.1193Z" fill="#A13A37"/>
<path d="M24.1099 27.4854L23.4092 27.1709L20.5088 33.4718L21.2095 33.7862L24.1099 27.4854Z" fill="white"/>
<path d="M22.7172 28.6785L20.5117 33.4697L21.2123 33.7841L23.4178 28.9929L22.7172 28.6785Z" fill="#F1F1F1"/>
<path d="M22.9528 28.1672L22.7002 28.7158L23.4008 29.0302L23.6533 28.4816L22.9528 28.1672Z" fill="#D8D8D8"/>
<path d="M15.2965 46.6113C15.9429 46.6113 16.4669 46.0939 16.4669 45.4556C16.4669 44.8173 15.9429 44.2998 15.2965 44.2998C14.65 44.2998 14.126 44.8173 14.126 45.4556C14.126 46.0939 14.65 46.6113 15.2965 46.6113Z" fill="#133643"/>
<path d="M15.2964 46.1779C14.8927 46.1779 14.5645 45.8536 14.5645 45.4552C14.5645 45.0566 14.8929 44.7324 15.2964 44.7324C15.6999 44.7324 16.0284 45.0566 16.0284 45.4552C16.0284 45.8536 15.6999 46.1779 15.2964 46.1779Z" fill="#335464"/>
<path d="M21.6861 46.6113C22.3325 46.6113 22.8566 46.0939 22.8566 45.4556C22.8566 44.8173 22.3325 44.2998 21.6861 44.2998C21.0397 44.2998 20.5156 44.8173 20.5156 45.4556C20.5156 46.0939 21.0397 46.6113 21.6861 46.6113Z" fill="#133643"/>
<path d="M21.6861 46.1779C21.2824 46.1779 20.9541 45.8536 20.9541 45.4552C20.9541 45.0566 21.2825 44.7324 21.6861 44.7324C22.0896 44.7324 22.418 45.0566 22.418 45.4552C22.418 45.8536 22.0897 46.1779 21.6861 46.1779Z" fill="#335464"/>
<path d="M30.752 29.3969C30.7099 29.3382 30.6699 29.2778 30.6332 29.2148H28.2261C28.0907 29.2148 27.9718 29.3043 27.9361 29.4334L27.662 30.4248H10.4029C10.317 30.4248 10.2349 30.4618 10.1784 30.5258C10.1222 30.5897 10.0964 30.6748 10.1084 30.7594L10.3845 32.7185C10.3781 32.7418 10.375 32.7667 10.375 32.7921C10.375 32.8466 10.3898 32.8972 10.4156 32.9408L10.7653 35.4191L10.8481 36.0068L11.1773 38.3405L11.2601 38.9282L11.5514 40.9934C11.5716 41.1387 11.6974 41.2469 11.846 41.2469H24.6158L24.1995 42.7227C24.0047 43.4134 23.3616 43.8957 22.6359 43.8957H13.5322C13.3678 43.8957 13.2348 44.027 13.2348 44.1893C13.2348 44.3517 13.3678 44.483 13.5322 44.483H22.6359C23.6276 44.483 24.5064 43.8241 24.7728 42.8805L25.2835 41.0694C25.2835 41.0694 25.2835 41.0694 25.2835 41.069L25.2839 41.0687C25.2892 41.0568 25.2937 41.0446 25.2969 41.0316L25.8904 38.9279L26.0559 38.3403L26.7144 36.0065L26.88 35.4189L27.5604 33.0066L27.6439 32.7112V32.7108L28.1836 30.7968C28.186 30.7881 28.1882 30.779 28.1896 30.7703L28.4555 29.8083H30.4168C30.5368 29.6778 30.651 29.5423 30.752 29.3969ZM25.2034 39.1748V39.1758C25.198 39.1884 25.1932 39.2009 25.1892 39.2142L24.7815 40.6596H12.1054L11.8615 38.9286H25.2731L25.2034 39.1748ZM25.4389 38.3408H11.7783L11.4491 36.007H26.0968L25.4389 38.3408ZM26.2629 35.4194H11.3658L11.0373 33.0859H26.9207L26.2629 35.4194ZM27.0865 32.4985H10.9543L10.7445 31.0126H27.5056L27.0865 32.4985Z" fill="#133643"/>
<path d="M30.6329 29.2148C30.6697 29.2779 30.7096 29.3385 30.7517 29.3971C30.6504 29.5425 30.5365 29.6778 30.4164 29.8087H29.541V29.215H30.6329V29.2148Z" fill="#913E35"/>
<path d="M32.7271 29.5116C32.7271 29.6754 32.5923 29.8084 32.4265 29.8084H31.983C32.001 29.7246 31.9912 29.6373 31.9562 29.5612C31.7652 29.3745 31.3379 29.2942 31.3379 29.2148H32.4265C32.5923 29.2148 32.7271 29.3478 32.7271 29.5116Z" fill="#133643"/>
<path d="M32.7262 29.5118C32.7262 29.6755 32.5914 29.8086 32.4256 29.8086H31.982C32.0003 29.7247 31.9903 29.6374 31.9552 29.5613C31.7642 29.3747 31.3369 29.2943 31.3369 29.2148H32.4255C32.5914 29.2148 32.7262 29.3479 32.7262 29.5118Z" fill="#913E35"/>
</svg>
