<svg width="16" height="16" viewBox="0 0 16 16" fill="none" xmlns="http://www.w3.org/2000/svg">
<path d="M10.3333 8.66667C12.7266 8.66667 14.6667 8.06971 14.6667 7.33333C14.6667 6.59695 12.7266 6 10.3333 6C7.9401 6 6 6.59695 6 7.33333C6 8.06971 7.9401 8.66667 10.3333 8.66667Z" stroke="#7C7C7C"/>
<path d="M14.6667 10.333C14.6667 11.0694 12.7266 11.6663 10.3333 11.6663C7.94007 11.6663 6 11.0694 6 10.333" stroke="#7C7C7C"/>
<path d="M14.6667 7.33301V13.1997C14.6667 14.0097 12.7266 14.6663 10.3333 14.6663C7.94007 14.6663 6 14.0097 6 13.1997V7.33301" stroke="#7C7C7C"/>
<path d="M5.66668 3.99967C8.05991 3.99967 10 3.40272 10 2.66634C10 1.92996 8.05991 1.33301 5.66668 1.33301C3.27344 1.33301 1.33334 1.92996 1.33334 2.66634C1.33334 3.40272 3.27344 3.99967 5.66668 3.99967Z" stroke="#7C7C7C"/>
<path d="M4.00001 7.33333C2.7388 7.17987 1.57995 6.783 1.33334 6M4.00001 10.6667C2.7388 10.5132 1.57995 10.1163 1.33334 9.33333" stroke="#7C7C7C" stroke-linecap="round"/>
<path d="M4.00001 14.0003C2.7388 13.8469 1.57995 13.45 1.33334 12.667V2.66699" stroke="#7C7C7C" stroke-linecap="round"/>
<path d="M10 4.00033V2.66699" stroke="#7C7C7C" stroke-linecap="round"/>
</svg>
