<svg width="18" height="14" viewBox="0 0 18 14" fill="none" xmlns="http://www.w3.org/2000/svg">
<path fill-rule="evenodd" clip-rule="evenodd" d="M17.0417 12.542C16.125 13.4587 14.8583 13.4587 12.3333 13.4587H5.66667C3.14167 13.4587 1.87499 13.4587 0.958322 12.542C0.0416719 11.6253 0.0416718 10.2754 0.0416718 7.83383V6.16699C0.0416718 3.7171 0.0416719 2.37531 0.958322 1.45867C1.87499 0.542 3.14167 0.541992 5.66667 0.541992H12.3333C14.8583 0.541992 16.125 0.542 17.0417 1.45867C17.9583 2.37531 17.9583 3.72527 17.9583 6.16683V7.83366C17.9583 10.2836 17.9583 11.6253 17.0417 12.542ZM5.66667 1.79199C5.2683 1.79199 4.90627 1.79199 4.57725 1.79533C4.31387 3.48076 2.98044 4.81422 1.29501 5.07759C1.29167 5.40658 1.29167 5.76866 1.29167 6.16699V7.83366C1.29167 8.23183 1.29167 8.59374 1.29501 8.92266C2.98056 9.18608 4.31407 10.5197 4.5773 12.2053C4.90631 12.2087 5.26832 12.2087 5.66667 12.2087H12.3333C12.7279 12.2087 13.0869 12.2087 13.4134 12.2054C13.6545 10.5055 15.0038 9.15899 16.705 8.92216C16.7083 8.59341 16.7083 8.23166 16.7083 7.83366V6.16699C16.7083 5.76749 16.7083 5.40458 16.705 5.07477C15.0248 4.80288 13.6892 3.46657 13.4233 1.79534C13.0941 1.79199 12.7319 1.79199 12.3333 1.79199H5.66667ZM1.8417 2.34199C2.13855 2.04515 2.59316 1.90852 3.29203 1.84563C3.04981 2.79813 2.29782 3.55013 1.34531 3.79237C1.40821 3.09348 1.54485 2.63884 1.8417 2.34199ZM1.8417 11.6587C1.5448 11.3617 1.40816 10.907 1.34528 10.2079C2.29793 10.4502 3.05 11.2023 3.29213 12.155C2.5932 12.0922 2.13856 11.9555 1.8417 11.6587ZM16.1583 11.6587C15.8594 11.9576 15.4006 12.094 14.6935 12.1563C14.92 11.1884 15.6862 10.4247 16.6553 10.2015C16.5927 10.9042 16.4561 11.3608 16.1583 11.6587ZM16.1583 2.34199C16.4549 2.63859 16.5916 3.09271 16.6545 3.79061C15.7054 3.54584 14.9524 2.79318 14.7087 1.84569C15.4072 1.90861 15.8616 2.04525 16.1583 2.34199ZM5.875 7.00033C5.875 8.72533 7.275 10.1253 9 10.1253C10.725 10.1253 12.125 8.72533 12.125 7.00033C12.125 5.27533 10.725 3.87533 9 3.87533C7.275 3.87533 5.875 5.27533 5.875 7.00033ZM7.125 7.00033C7.125 5.96699 7.96667 5.12533 9 5.12533C10.0333 5.12533 10.875 5.96699 10.875 7.00033C10.875 8.03366 10.0333 8.87533 9 8.87533C7.96667 8.87533 7.125 8.03366 7.125 7.00033Z" fill="#A13A37"/>
</svg>
