<svg width="20" height="21" viewBox="0 0 20 21" fill="none" xmlns="http://www.w3.org/2000/svg">
<path fill-rule="evenodd" clip-rule="evenodd" d="M11.215 8.10137L17.4783 1.46387H19.5541L19.5458 1.47303L12.1375 9.32637L18.92 18.328C19.0019 18.4364 19.0531 18.5649 19.0681 18.6999C19.0831 18.835 19.0613 18.9716 19.0052 19.0953C18.949 19.219 18.8606 19.3253 18.7491 19.4029C18.6375 19.4806 18.5072 19.5267 18.3716 19.5364H14.125C14.0173 19.5289 13.9125 19.4984 13.8177 19.4468C13.7229 19.3951 13.6404 19.3236 13.5758 19.2372L8.8033 12.903L2.57663 19.5364H0.445801L7.8808 11.678L1.0983 2.67637C1.01363 2.56425 0.961924 2.43073 0.948998 2.29083C0.936071 2.15093 0.962438 2.0102 1.02513 1.88447C1.08782 1.75873 1.18436 1.65299 1.30387 1.57912C1.42338 1.50526 1.56114 1.46621 1.70163 1.46637H5.83913C6.07663 1.46637 6.29997 1.57803 6.44247 1.7672L11.215 8.10137ZM10.5791 9.76803C10.5582 9.74335 10.5387 9.71748 10.5208 9.69053L5.46247 2.9772H3.21663L14.5558 18.0272H16.8025L10.5791 9.76803Z" fill="black"/>
</svg>
