<svg width="20" height="20" viewBox="0 0 20 20" fill="none" xmlns="http://www.w3.org/2000/svg">
<path d="M16.1995 12.8662C16.97 12.1013 17.5649 11.3412 17.9537 10.7962C18.207 10.4409 18.3337 10.2632 18.3337 10.0003C18.3337 9.73741 18.207 9.55974 17.9537 9.20449C16.8152 7.60819 13.908 4.16699 10.0003 4.16699C9.24383 4.16699 8.52483 4.29596 7.84888 4.51555M5.62318 5.62318C3.94298 6.75633 2.70212 8.28588 2.04703 9.20449C1.79367 9.55974 1.66699 9.73741 1.66699 10.0003C1.66699 10.2632 1.79367 10.4409 2.04703 10.7962C3.18541 12.3925 6.09264 15.8337 10.0003 15.8337C11.6593 15.8337 13.1379 15.2134 14.3775 14.3775" stroke="#525252" stroke-width="1.5" stroke-linecap="round" stroke-linejoin="round"/>
<path d="M8.21488 8.33301C7.77319 8.77467 7.5 9.38492 7.5 10.0589C7.5 11.4069 8.59275 12.4997 9.94075 12.4997C10.6147 12.4997 11.225 12.2265 11.6667 11.7848" stroke="#525252" stroke-width="1.5" stroke-linecap="round"/>
</svg>
